<svg width="442.7050537109375px" height="221.62003173828126px" xmlns="http://www.w3.org/2000/svg" viewBox="28.64747314453126 -35.81001586914063 442.7050537109375 221.62003173828126" style="background: none;" preserveAspectRatio="xMidYMid"><defs><filter id="editing-extrude-glow"><feFlood flood-color="#ffffff" result="flood-1"></feFlood><feMorphology operator="erode" radius="1" in="SourceAlpha" result="erode"></feMorphology><feComposite operator="in" in="flood-1" in2="erode" result="comp1"></feComposite><feConvolveMatrix order="3,3" divisor="1" in="comp1" result="convolve" kernelMatrix="0 0 0 1 1 1 0 0 0"></feConvolveMatrix><feOffset dx="-3" dy="0" in="convolve" result="extrude"></feOffset><feComposite operator="in" in="flood-1" in2="extrude" result="comp-extrude"></feComposite><feFlood flood-color="#ffffff" result="flood-2"></feFlood><feComposite operator="in" in="flood-2" in2="SourceAlpha" result="comp2"></feComposite><feMorphology operator="dilate" radius="1" in="comp2" result="dilate"></feMorphology><feOffset dx="-4.5" dy="0" in="dilate" result="offset"></feOffset><feGaussianBlur in="offset" stdDeviation="5.8" result="blur"></feGaussianBlur><feComponentTransfer in="blur" result="shadow"><feFuncA type="linear" slope="0.8" intercept="-0.2"></feFuncA></feComponentTransfer><feMerge><feMergeNode in="shadow"></feMergeNode><feMergeNode in="comp-extrude"></feMergeNode><feMergeNode in="SourceGraphic"></feMergeNode></feMerge></filter></defs><g filter="url(#editing-extrude-glow)"><g transform="translate(98.42999410629272, 114.95999908447266)"><path d="M17.87 1.33L17.87 1.33Q10.77 1.33 5.22-2.33L5.22-2.33L5.22-12.10L5.22-12.10Q11.10-7.66 17.09-7.66L17.09-7.66L17.09-7.66Q22.53-7.66 24.48-11.93L24.48-11.93L24.48-11.93Q26.42-16.21 26.42-26.31L26.42-26.31L26.42-77.26L36.19-77.26L36.19-24.86L36.19-24.86Q36.19-11.32 31.91-5.00L31.91-5.00L31.91-5.00Q27.64 1.33 17.87 1.33L17.87 1.33ZM116.11 0L108.22-20.42L71.04-20.42L63.16 0L53.39 0L83.14-77.26L96.68-77.26L126.43 0L116.11 0ZM74.26-28.75L105.01-28.75L89.69-68.71L74.26-28.75ZM144.86 0L144.86-77.26L169.94-77.26L169.94-77.26Q198.80-77.26 198.80-51.95L198.80-51.95L198.80-51.95Q198.80-39.18 191.64-32.47L191.64-32.47L191.64-32.47Q184.48-25.75 170.72-25.75L170.72-25.75L154.62-25.75L154.62 0L144.86 0ZM154.62-34.85L170.39-34.85L170.39-34.85Q179.93-34.85 184.09-38.74L184.09-38.74L184.09-38.74Q188.26-42.62 188.26-51.50L188.26-51.50L188.26-51.50Q188.26-60.38 184.09-64.16L184.09-64.16L184.09-64.16Q179.93-67.93 169.94-67.93L169.94-67.93L154.62-67.93L154.62-34.85ZM240.43 1.33L240.43 1.33Q233.99 1.33 227.00-0.33L227.00-0.33L227.00-0.33Q220.00-2.00 213.79-4.88L213.79-4.88L213.79-15.43L213.79-15.43Q221.11-11.43 227.38-9.55L227.38-9.55L227.38-9.55Q233.66-7.66 239.76-7.66L239.76-7.66L239.76-7.66Q247.42-7.66 251.64-11.10L251.64-11.10L251.64-11.10Q255.86-14.54 255.86-20.54L255.86-20.54L255.86-20.54Q255.86-24.64 253.52-27.42L253.52-27.42L253.52-27.42Q251.19-30.19 247.64-31.86L247.64-31.86L247.64-31.86Q244.09-33.52 238.10-35.52L238.10-35.52L238.10-35.52Q230.88-37.96 226.50-40.18L226.50-40.18L226.50-40.18Q222.11-42.40 219.00-46.51L219.00-46.51L219.00-46.51Q215.90-50.62 215.90-57.16L215.90-57.16L215.90-57.16Q215.90-66.93 223.00-72.76L223.00-72.76L223.00-72.76Q230.10-78.59 242.09-78.59L242.09-78.59L242.09-78.59Q253.75-78.59 263.51-73.59L263.51-73.59L263.51-63.38L263.51-63.38Q252.53-69.60 242.09-69.60L242.09-69.60L242.09-69.60Q234.43-69.60 230.10-66.54L230.10-66.54L230.10-66.54Q225.77-63.49 225.77-58.16L225.77-58.16L225.77-58.16Q225.77-54.50 227.99-52.06L227.99-52.06L227.99-52.06Q230.21-49.62 233.43-48.12L233.43-48.12L233.43-48.12Q236.65-46.62 242.54-44.51L242.54-44.51L242.54-44.51Q249.86-42.07 254.52-39.74L254.52-39.74L254.52-39.74Q259.19-37.41 262.46-32.97L262.46-32.97L262.46-32.97Q265.73-28.53 265.73-21.53L265.73-21.53L265.73-21.53Q265.73-14.65 262.63-9.49L262.63-9.49L262.63-9.49Q259.52-4.33 253.75-1.50L253.75-1.50L253.75-1.50Q247.97 1.33 240.43 1.33L240.43 1.33ZM288.16 0L288.16-77.26L297.92-77.26L297.92 0L288.16 0Z" fill="#d63635"></path></g></g><style>text {
  font-size: 64px;
  font-family: Arial Black;
  dominant-baseline: central;
  text-anchor: middle;
}</style></svg>