<svg width="448.6975830078125px" height="247.20502929687498px" xmlns="http://www.w3.org/2000/svg" viewBox="25.651208496093744 -48.60251464843749 448.6975830078125 247.20502929687498" style="background: rgb(253, 253, 253);" preserveAspectRatio="xMidYMid"><defs><filter id="editing-hole" x="-100%" y="-100%" width="300%" height="300%"><feFlood flood-color="#07487b" result="black"></feFlood><feMorphology operator="dilate" radius="2" in="SourceGraphic" result="erode"></feMorphology><feGaussianBlur in="erode" stdDeviation="4" result="blur"></feGaussianBlur><feOffset in="blur" dx="2" dy="2" result="offset"></feOffset><feComposite operator="atop" in="offset" in2="black" result="merge"></feComposite><feComposite operator="in" in="merge" in2="SourceGraphic" result="inner-shadow"></feComposite></filter></defs><g filter="url(#editing-hole)"><g transform="translate(97.96688652038574, 131.68224716186523)"><path d="M4.35 25.60L4.35 25.60Q-2.05 25.60-5.44 24L-5.44 24L-5.44 24Q-8.83 22.40-8.83 19.33L-8.83 19.33L-8.83 19.33Q-8.83 17.28-7.10 15.30L-7.10 15.30L-7.10 15.30Q-5.38 13.31-3.84 13.31L-3.84 13.31L-3.84 13.31Q-0.26 13.31 2.18 16.51L2.18 16.51L2.18 16.51Q3.84 18.56 5.18 19.46L5.18 19.46L5.18 19.46Q6.53 20.35 8.19 20.35L8.19 20.35L8.19 20.35Q16.64 20.35 16.64 0.13L16.64 0.13L16.64-70.53L16.64-70.53Q16.64-74.88 14.78-76.80L14.78-76.80L14.78-76.80Q12.93-78.72 8.19-79.62L8.19-79.62L8.19-79.62Q3.97-80.38 3.97-82.18L3.97-82.18L3.97-82.18Q3.97-83.58 7.68-83.58L7.68-83.58L7.68-83.58Q11.26-83.58 15.87-83.33L15.87-83.33L22.66-83.20L27.39-83.33L27.39-83.33Q30.72-83.58 34.69-83.58L34.69-83.58L34.69-83.58Q38.40-83.58 38.40-82.18L38.40-82.18L38.40-82.18Q38.40-80.38 34.18-79.62L34.18-79.62L34.18-79.62Q29.57-78.72 28.22-76.93L28.22-76.93L28.22-76.93Q26.88-75.14 26.88-70.53L26.88-70.53L26.88-6.02L26.88-6.02Q26.88 1.15 23.87 7.55L23.87 7.55L23.87 7.55Q20.86 13.95 16.77 18.69L16.77 18.69L16.77 18.69Q10.88 25.60 4.35 25.60L4.35 25.60ZM46.98 0.64L46.98 0.64Q45.31 0.64 44.29 0.19L44.29 0.19L44.29 0.19Q43.26-0.26 43.26-1.02L43.26-1.02L43.26-1.02Q43.26-2.69 47.49-3.97L47.49-3.97L47.49-3.97Q51.20-5.12 53.89-7.23L53.89-7.23L53.89-7.23Q56.58-9.34 58.50-13.82L58.50-13.82L58.50-13.82Q65.28-29.44 70.34-42.18L70.34-42.18L70.34-42.18Q75.39-54.91 82.43-73.98L82.43-73.98L82.43-73.98Q83.84-77.95 84.22-81.41L84.22-81.41L84.22-81.41Q84.61-81.54 86.08-81.98L86.08-81.98L86.08-81.98Q87.55-82.43 88.83-83.33L88.83-83.33L88.83-83.33Q89.86-84.10 90.43-85.63L90.43-85.63L90.43-85.63Q91.01-87.17 91.26-87.68L91.26-87.68L91.26-87.68Q91.39-87.81 91.58-87.74L91.58-87.74L91.58-87.74Q91.78-87.68 91.90-87.55L91.90-87.55L91.90-87.55Q92.16-86.91 92.35-86.14L92.35-86.14L92.35-86.14Q92.54-85.38 92.80-84.74L92.80-84.74L92.80-84.74Q102.27-54.91 115.58-16.38L115.58-16.38L115.58-16.38Q118.02-9.34 120.96-6.85L120.96-6.85L120.96-6.85Q123.90-4.35 128.51-3.58L128.51-3.58L128.51-3.58Q130.56-3.20 131.65-2.37L131.65-2.37L131.65-2.37Q132.74-1.54 132.74-0.64L132.74-0.64L132.74-0.64Q132.74 0.64 129.02 0.64L129.02 0.64L122.11 0.38L122.11 0.38Q114.94-0.13 111.23-0.13L111.23-0.13L97.79 0L97.79 0Q94.08 0 94.08-1.54L94.08-1.54L94.08-1.54Q94.08-2.30 95.30-3.01L95.30-3.01L95.30-3.01Q96.51-3.71 98.30-3.97L98.30-3.97L98.30-3.97Q106.11-5.25 106.11-9.73L106.11-9.73L106.11-9.73Q106.11-13.82 101.12-30.46L101.12-30.46L101.12-30.46Q100.86-31.36 100.16-31.62L100.16-31.62L100.16-31.62Q99.46-31.87 97.66-31.87L97.66-31.87L73.47-31.87L73.47-31.87Q72.06-31.87 71.30-29.57L71.30-29.57L71.30-29.57Q69.89-25.47 67.97-18.88L67.97-18.88L67.97-18.88Q66.05-12.29 66.05-11.14L66.05-11.14L66.05-11.14Q66.05-8.45 68.16-6.53L68.16-6.53L68.16-6.53Q70.27-4.61 73.47-3.84L73.47-3.84L73.47-3.84Q75.78-3.20 76.74-2.69L76.74-2.69L76.74-2.69Q77.70-2.18 77.70-1.28L77.70-1.28L77.70-1.28Q77.70 0.13 73.98 0.13L73.98 0.13L73.98 0.13Q71.68 0.13 70.14 0L70.14 0L62.34-0.13L62.34-0.13Q60.16-0.13 57.54 0.06L57.54 0.06L57.54 0.06Q54.91 0.26 53.63 0.26L53.63 0.26L53.63 0.26Q50.05 0.64 46.98 0.64L46.98 0.64ZM76.93-36.10L96.77-36.10L96.77-36.10Q97.54-36.10 98.05-36.22L98.05-36.22L98.05-36.22Q98.56-36.35 98.56-36.74L98.56-36.74L98.30-38.02L88.32-69.25L88.32-69.25Q87.55-71.55 87.17-71.55L87.17-71.55L87.17-71.55Q86.91-71.55 86.14-69.38L86.14-69.38L74.50-38.02L74.24-36.99L74.24-36.99Q74.24-36.35 74.82-36.22L74.82-36.22L74.82-36.22Q75.39-36.10 76.93-36.10L76.93-36.10ZM138.88 0.64L138.88 0.64Q135.17 0.64 135.17-0.77L135.17-0.77L135.17-0.77Q135.17-1.66 136.19-2.18L136.19-2.18L136.19-2.18Q137.22-2.69 139.39-3.07L139.39-3.07L139.39-3.07Q144.38-3.97 146.56-6.08L146.56-6.08L146.56-6.08Q148.74-8.19 148.74-12.80L148.74-12.80L148.74-66.82L148.74-66.82Q148.74-72.96 147.14-75.90L147.14-75.90L147.14-75.90Q145.54-78.85 140.93-79.62L140.93-79.62L140.93-79.62Q136.70-80.38 136.70-82.18L136.70-82.18L136.70-82.18Q136.70-83.58 140.42-83.58L140.42-83.58L140.42-83.58Q145.92-83.58 147.58-83.46L147.58-83.46L152.96-83.46L152.96-83.46Q154.88-83.46 157.44-83.58L157.44-83.58L157.44-83.58Q160-83.71 161.28-83.84L161.28-83.84L161.28-83.84Q164.61-84.22 167.17-84.22L167.17-84.22L167.17-84.22Q181.89-84.22 190.72-78.14L190.72-78.14L190.72-78.14Q199.55-72.06 199.55-61.44L199.55-61.44L199.55-61.44Q199.55-53.38 196.42-46.78L196.42-46.78L196.42-46.78Q193.28-40.19 186.82-36.35L186.82-36.35L186.82-36.35Q180.35-32.51 170.88-32.51L170.88-32.51L170.88-32.51Q168.32-32.51 166.72-33.28L166.72-33.28L166.72-33.28Q165.12-34.05 165.12-34.94L165.12-34.94L165.12-34.94Q165.12-35.46 165.82-36.10L165.82-36.10L165.82-36.10Q166.53-36.74 167.17-36.74L167.17-36.74L167.17-36.74Q167.55-36.74 169.15-36.61L169.15-36.61L169.15-36.61Q170.75-36.48 173.06-36.48L173.06-36.48L173.06-36.48Q180.61-36.48 184.58-42.75L184.58-42.75L184.58-42.75Q188.54-49.02 188.54-60.54L188.54-60.54L188.54-60.54Q188.54-70.40 182.72-75.52L182.72-75.52L182.72-75.52Q176.90-80.64 167.17-80.64L167.17-80.64L167.17-80.64Q158.98-80.64 158.98-75.26L158.98-75.26L158.98-14.21L158.98-14.21Q158.98-9.34 160.96-6.66L160.96-6.66L160.96-6.66Q162.94-3.97 167.55-3.07L167.55-3.07L167.55-3.07Q169.73-2.69 170.75-2.18L170.75-2.18L170.75-2.18Q171.78-1.66 171.78-0.77L171.78-0.77L171.78-0.77Q171.78 0.64 168.06 0.64L168.06 0.64L168.06 0.64Q163.97 0.64 160.64 0.13L160.64 0.13L160.64 0.13Q158.34-0.26 155.52-0.26L155.52-0.26L155.52-0.26Q153.22-0.26 150.85-0.06L150.85-0.06L150.85-0.06Q148.48 0.13 147.46 0.13L147.46 0.13L147.46 0.13Q142.34 0.64 138.88 0.64L138.88 0.64ZM228.86 2.05L228.86 2.05Q218.11 2.05 210.82-4.10L210.82-4.10L210.82-4.10Q209.41-5.50 209.15-6.66L209.15-6.66L209.15-6.66Q208.64-8.96 208-17.28L208-17.28L207.87-20.10L207.87-20.10Q207.87-20.99 208.58-21.44L208.58-21.44L208.58-21.44Q209.28-21.89 210.43-21.89L210.43-21.89L210.43-21.89Q212.10-21.89 212.48-20.48L212.48-20.48L212.48-20.48Q214.78-11.14 219.71-6.66L219.71-6.66L219.71-6.66Q224.64-2.18 230.66-2.18L230.66-2.18L230.66-2.18Q237.31-2.18 241.66-6.46L241.66-6.46L241.66-6.46Q246.02-10.75 246.02-17.79L246.02-17.79L246.02-17.79Q246.02-22.78 244.42-26.05L244.42-26.05L244.42-26.05Q242.82-29.31 240-31.55L240-31.55L240-31.55Q237.18-33.79 231.55-37.25L231.55-37.25L228.99-38.78L228.99-38.78Q222.72-42.62 219.14-45.44L219.14-45.44L219.14-45.44Q215.55-48.26 212.99-52.35L212.99-52.35L212.99-52.35Q210.43-56.45 210.43-61.70L210.43-61.70L210.43-61.70Q210.43-71.94 217.34-78.46L217.34-78.46L217.34-78.46Q224.26-84.99 237.18-84.99L237.18-84.99L237.18-84.99Q243.71-84.99 250.62-82.18L250.62-82.18L250.62-82.18Q251.52-81.79 252.29-80.90L252.29-80.90L252.29-80.90Q253.06-80 253.31-78.98L253.31-78.98L253.31-78.98Q254.59-74.50 255.23-71.74L255.23-71.74L255.23-71.74Q255.87-68.99 255.87-66.30L255.87-66.30L255.87-66.30Q255.87-64.90 253.95-64.90L253.95-64.90L253.95-64.90Q252.80-64.90 251.71-65.41L251.71-65.41L251.71-65.41Q250.62-65.92 250.37-66.69L250.37-66.69L250.37-66.69Q247.55-73.73 243.90-77.18L243.90-77.18L243.90-77.18Q240.26-80.64 235.01-80.64L235.01-80.64L235.01-80.64Q228.61-80.64 224.45-77.12L224.45-77.12L224.45-77.12Q220.29-73.60 220.29-66.05L220.29-66.05L220.29-66.05Q220.29-62.46 222.59-59.39L222.59-59.39L222.59-59.39Q224.90-56.32 228.42-53.76L228.42-53.76L228.42-53.76Q231.94-51.20 238.21-47.36L238.21-47.36L238.21-47.36Q244.22-43.65 247.94-40.70L247.94-40.70L247.94-40.70Q251.65-37.76 254.21-33.41L254.21-33.41L254.21-33.41Q256.77-29.06 256.77-23.04L256.77-23.04L256.77-23.04Q256.77-11.65 249.09-4.80L249.09-4.80L249.09-4.80Q241.41 2.05 228.86 2.05L228.86 2.05ZM268.42 0.64L268.42 0.64Q264.70 0.64 264.70-0.77L264.70-0.77L264.70-0.77Q264.70-1.66 265.73-2.18L265.73-2.18L265.73-2.18Q266.75-2.69 268.93-3.07L268.93-3.07L268.93-3.07Q274.05-3.97 276.48-6.08L276.48-6.08L276.48-6.08Q278.91-8.19 278.91-12.54L278.91-12.54L278.91-70.40L278.91-70.40Q278.91-74.88 277.06-76.80L277.06-76.80L277.06-76.80Q275.20-78.72 270.34-79.62L270.34-79.62L270.34-79.62Q266.11-80.38 266.11-82.18L266.11-82.18L266.11-82.18Q266.11-83.58 269.82-83.58L269.82-83.58L269.82-83.58Q273.41-83.58 278.02-83.33L278.02-83.33L284.80-83.20L290.94-83.33L290.94-83.33Q295.04-83.58 298.75-83.58L298.75-83.58L298.75-83.58Q302.46-83.58 302.46-82.18L302.46-82.18L302.46-82.18Q302.46-80.38 298.24-79.62L298.24-79.62L298.24-79.62Q293.25-78.72 291.20-76.74L291.20-76.74L291.20-76.74Q289.15-74.75 289.15-70.40L289.15-70.40L289.15-12.54L289.15-12.54Q289.15-8.19 291.65-6.08L291.65-6.08L291.65-6.08Q294.14-3.97 299.26-3.07L299.26-3.07L299.26-3.07Q301.44-2.69 302.46-2.18L302.46-2.18L302.46-2.18Q303.49-1.66 303.49-0.77L303.49-0.77L303.49-0.77Q303.49 0.64 299.78 0.64L299.78 0.64L299.78 0.64Q295.04 0.64 291.58 0.26L291.58 0.26L291.58 0.26Q287.49 0 284.80 0L284.80 0L284.80 0Q281.60 0 276.99 0.26L276.99 0.26L276.99 0.26Q273.15 0.64 268.42 0.64L268.42 0.64Z" fill="#0f75ba"></path></g></g><style>text {
  font-size: 64px;
  font-family: Arial Black;
  dominant-baseline: central;
  text-anchor: middle;
}</style></svg>