<svg width="644.5375244140624px" height="317.6275207519531px" xmlns="http://www.w3.org/2000/svg" viewBox="-72.26876220703122 -83.81376037597656 644.5375244140624 317.6275207519531" style="background: none;" preserveAspectRatio="xMidYMid"><defs><filter id="editing-extrude-glow"><feFlood flood-color="#ffffff" result="flood-1"></feFlood><feMorphology operator="erode" radius="1" in="SourceAlpha" result="erode"></feMorphology><feComposite operator="in" in="flood-1" in2="erode" result="comp1"></feComposite><feConvolveMatrix order="3,3" divisor="1" in="comp1" result="convolve" kernelMatrix="0 0 0 1 1 1 0 0 0"></feConvolveMatrix><feOffset dx="-3" dy="0" in="convolve" result="extrude"></feOffset><feComposite operator="in" in="flood-1" in2="extrude" result="comp-extrude"></feComposite><feFlood flood-color="#ffffff" result="flood-2"></feFlood><feComposite operator="in" in="flood-2" in2="SourceAlpha" result="comp2"></feComposite><feMorphology operator="dilate" radius="1" in="comp2" result="dilate"></feMorphology><feOffset dx="-4.5" dy="0" in="dilate" result="offset"></feOffset><feGaussianBlur in="offset" stdDeviation="5.8" result="blur"></feGaussianBlur><feComponentTransfer in="blur" result="shadow"><feFuncA type="linear" slope="0.8" intercept="-0.2"></feFuncA></feComponentTransfer><feMerge><feMergeNode in="shadow"></feMergeNode><feMergeNode in="comp-extrude"></feMergeNode><feMergeNode in="SourceGraphic"></feMergeNode></feMerge></filter></defs><g filter="url(#editing-extrude-glow)"><g transform="translate(26.054999351501465, 134.04000091552734)"><path d="M26.40 1.97L26.40 1.97Q15.91 1.97 7.71-3.44L7.71-3.44L7.71-17.88L7.71-17.88Q16.40-11.32 25.26-11.32L25.26-11.32L25.26-11.32Q33.29-11.32 36.16-17.63L36.16-17.63L36.16-17.63Q39.03-23.94 39.03-38.87L39.03-38.87L39.03-114.14L53.46-114.14L53.46-36.74L53.46-36.74Q53.46-16.73 47.15-7.38L47.15-7.38L47.15-7.38Q40.84 1.97 26.40 1.97L26.40 1.97ZM171.54 0L159.90-30.18L104.96-30.18L93.32 0L78.88 0L122.84-114.14L142.84-114.14L186.80 0L171.54 0ZM109.72-42.48L155.14-42.48L132.51-101.52L109.72-42.48ZM214.02 0L214.02-114.14L251.08-114.14L251.08-114.14Q293.72-114.14 293.72-76.75L293.72-76.75L293.72-76.75Q293.72-57.89 283.15-47.97L283.15-47.97L283.15-47.97Q272.57-38.05 252.23-38.05L252.23-38.05L228.45-38.05L228.45 0L214.02 0ZM228.45-51.50L251.74-51.50L251.74-51.50Q265.84-51.50 271.99-57.24L271.99-57.24L271.99-57.24Q278.14-62.98 278.14-76.10L278.14-76.10L278.14-76.10Q278.14-89.22 271.99-94.79L271.99-94.79L271.99-94.79Q265.84-100.37 251.08-100.37L251.08-100.37L228.45-100.37L228.45-51.50ZM355.22 1.97L355.22 1.97Q345.71 1.97 335.38-0.49L335.38-0.49L335.38-0.49Q325.05-2.95 315.86-7.22L315.86-7.22L315.86-22.80L315.86-22.80Q326.69-16.89 335.95-14.10L335.95-14.10L335.95-14.10Q345.22-11.32 354.24-11.32L354.24-11.32L354.24-11.32Q365.56-11.32 371.79-16.40L371.79-16.40L371.79-16.40Q378.02-21.48 378.02-30.34L378.02-30.34L378.02-30.34Q378.02-36.41 374.58-40.51L374.58-40.51L374.58-40.51Q371.13-44.61 365.88-47.07L365.88-47.07L365.88-47.07Q360.64-49.53 351.78-52.48L351.78-52.48L351.78-52.48Q341.12-56.09 334.64-59.37L334.64-59.37L334.64-59.37Q328.16-62.65 323.57-68.72L323.57-68.72L323.57-68.72Q318.98-74.78 318.98-84.46L318.98-84.46L318.98-84.46Q318.98-98.89 329.48-107.50L329.48-107.50L329.48-107.50Q339.97-116.11 357.68-116.11L357.68-116.11L357.68-116.11Q374.90-116.11 389.34-108.73L389.34-108.73L389.34-93.64L389.34-93.64Q373.10-102.83 357.68-102.83L357.68-102.83L357.68-102.83Q346.37-102.83 339.97-98.32L339.97-98.32L339.97-98.32Q333.58-93.81 333.58-85.94L333.58-85.94L333.58-85.94Q333.58-80.52 336.86-76.92L336.86-76.92L336.86-76.92Q340.14-73.31 344.89-71.09L344.89-71.09L344.89-71.09Q349.65-68.88 358.34-65.76L358.34-65.76L358.34-65.76Q369.16-62.16 376.05-58.71L376.05-58.71L376.05-58.71Q382.94-55.27 387.78-48.71L387.78-48.71L387.78-48.71Q392.62-42.15 392.62-31.82L392.62-31.82L392.62-31.82Q392.62-21.65 388.02-14.02L388.02-14.02L388.02-14.02Q383.43-6.40 374.90-2.21L374.90-2.21L374.90-2.21Q366.38 1.97 355.22 1.97L355.22 1.97ZM425.74 0L425.74-114.14L440.18-114.14L440.18 0L425.74 0Z" fill="#d63635"></path></g></g><style>text {
  font-size: 64px;
  font-family: Arial Black;
  dominant-baseline: central;
  text-anchor: middle;
}</style></svg>