<?xml version="1.0" standalone="no"?>
<!DOCTYPE svg PUBLIC "-//W3C//DTD SVG 20010904//EN"
 "http://www.w3.org/TR/2001/REC-SVG-20010904/DTD/svg10.dtd">
<svg version="1.0" xmlns="http://www.w3.org/2000/svg"
 width="700.000000pt" height="700.000000pt" viewBox="0 0 700.000000 700.000000"
 preserveAspectRatio="xMidYMid meet">
<metadata>
Created by potrace 1.14, written by Peter Selinger 2001-2017
</metadata>
<g transform="translate(0.000000,700.000000) scale(0.100000,-0.100000)"
fill="#000000" stroke="none">
<path d="M1834 5249 c-2 -4 -6 -496 -9 -1095 -3 -599 -7 -1108 -10 -1132 -8
-98 -60 -190 -134 -236 -46 -29 -103 -39 -209 -38 -163 2 -262 82 -287 232 -4
25 -9 52 -10 60 -1 8 -6 45 -9 81 l-7 67 -491 0 -490 -1 7 -111 c7 -124 10
-146 30 -262 27 -145 76 -271 146 -376 94 -139 247 -268 404 -339 66 -30 226
-85 270 -93 105 -20 149 -27 205 -35 96 -13 470 -10 585 4 612 78 944 370
1025 902 19 124 22 317 24 1666 1 622 -1 707 -14 708 -63 5 -1023 3 -1026 -2z"/>
<path d="M4441 5250 c-4 -3 -17 -32 -28 -65 -12 -33 -80 -222 -153 -420 -73
-198 -136 -371 -140 -385 -5 -14 -36 -99 -70 -190 -61 -164 -300 -819 -327
-895 -29 -82 -305 -842 -320 -880 -24 -63 -143 -396 -143 -401 0 -2 240 -4
534 -4 l535 0 16 57 c10 32 18 63 20 68 1 6 5 17 8 25 3 8 16 51 27 94 12 44
26 89 30 100 5 12 14 42 20 69 l13 47 563 0 562 0 15 -47 c7 -27 38 -130 68
-231 l54 -183 541 2 c297 0 546 4 552 8 13 8 27 -33 -173 516 -86 237 -184
504 -217 595 -32 91 -66 183 -74 204 -9 22 -62 170 -120 330 -58 160 -109 302
-115 316 -6 14 -49 131 -96 260 -47 129 -100 276 -118 325 -62 167 -102 279
-175 480 -40 110 -75 202 -77 205 -5 6 -1203 6 -1212 0z m640 -1072 c87 -287
101 -336 208 -701 52 -179 74 -270 67 -274 -11 -7 -543 -11 -623 -4 -40 3 -44
6 -40 25 4 19 60 212 167 571 85 288 151 511 157 529 5 17 6 17 14 3 5 -9 27
-76 50 -149z"/>
</g>
</svg>
